<?xml version="1.0" encoding="UTF-8"?>
<!DOCTYPE svg PUBLIC "-//W3C//DTD SVG 1.1//EN" "http://www.w3.org/Graphics/SVG/1.1/DTD/svg11.dtd">
<!-- Creator: CorelDRAW -->
<svg xmlns="http://www.w3.org/2000/svg" xml:space="preserve" width="0.396661in" height="0.146661in" style="shape-rendering:geometricPrecision; text-rendering:geometricPrecision; image-rendering:optimizeQuality; fill-rule:evenodd; clip-rule:evenodd"
viewBox="0 0 0.396661 0.146661"
 xmlns:xlink="http://www.w3.org/1999/xlink">
 <defs>
  <style type="text/css">
   <![CDATA[
    .fil2 {fill:#E6E7E8}
    .fil1 {fill:#FEFEFE}
    .fil0 {fill:#FEFEFE;fill-rule:nonzero}
    .fil3 {fill:#107FF2}
   ]]>
  </style>
 </defs>
 <g id="Layer_x0020_1">
  <metadata id="CorelCorpID_0Corel-Layer"/>
  <g id="_603113936">
   <g>
    <path id="_473421312" class="fil0" d="M0.163756 0.0691299l0.00831496 0 0.016563 0.0430591 -0.00851969 0 -0.00337008 -0.00887008 -0.0175512 0 -0.00351575 0.00887008 -0.00851575 0 0.0165945 -0.0430591zm0.00421654 0.0114173l-0.00574409 0.0147756 0.0114488 0 -0.00570472 -0.0147756z"/>
    <path id="_4734213121" class="fil0" d="M0.217638 0.0680512l0.00796063 0 0 0.0441378 -0.00796063 0 0 -0.00336614c-0.00155906,0.00148819 -0.00312598,0.00254724 -0.00469685,0.00320472 -0.00157874,0.000649606 -0.00327559,0.000980315 -0.00511417,0.000980315 -0.00411811,0 -0.00767323,-0.00159843 -0.0106811,-0.00478346 -0.00300787,-0.00318898 -0.00450394,-0.00715354 -0.00450394,-0.0119016 0,-0.00491339 0.00144882,-0.00894094 0.00435433,-0.0120866 0.00290945,-0.0031378 0.00644488,-0.00471654 0.0106024,-0.00471654 0.00190551,0 0.00370472,0.000370079 0.00538189,0.00108661 0.0016811,0.000720472 0.00322835,0.00181102 0.00465748,0.00324803l0 -0.0158031zm-0.00840157 0.0188504c-0.00248031,0 -0.00453543,0.000870079 -0.00617323,0.00261811 -0.00164173,0.00174803 -0.00246063,0.00398819 -0.00246063,0.0067126 0,0.00275984 0.000830709,0.00501575 0.0025,0.00679528 0.00166535,0.00177953 0.00372441,0.00266929 0.00616142,0.00266929 0.00251969,0 0.0046063,-0.00088189 0.00626772,-0.00262992 0.00165748,-0.00173622 0.00248425,-0.00402756 0.00248425,-0.0068622 0,-0.00276772 -0.000826772,-0.00501575 -0.00248425,-0.00672441 -0.00166142,-0.00172047 -0.00375984,-0.00257874 -0.00629528,-0.00257874z"/>
    <path id="_473421600" class="fil0" d="M0.277343 0.0758622l-0.00333465 0.00315748c-0.00240945,-0.00235827 -0.00503543,-0.00414567 -0.0078937,-0.00536614 -0.00285827,-0.00121654 -0.00564567,-0.00182677 -0.00835039,-0.00182677 -0.00337795,0 -0.00659449,0.000826772 -0.00965354,0.00248819 -0.00304724,0.00165748 -0.00541339,0.00390551 -0.00709449,0.00674409 -0.00167717,0.00283465 -0.00251575,0.00584252 -0.00251575,0.009 0,0.00323622 0.000870079,0.00631496 0.0026063,0.00923228 0.00174016,0.00291732 0.0041378,0.0052126 0.00719291,0.00688189 0.00306693,0.00166929 0.0064252,0.0025 0.0100709,0.0025 0.00443701,0 0.00818504,-0.00125197 0.0112402,-0.00374803 0.00306693,-0.00249606 0.00487795,-0.00573622 0.00544488,-0.0097126l-0.0137283 0 0 -0.00415354 0.018563 0c-3.93701e-005,0.00665354 -0.00201575,0.0119291 -0.00593307,0.0158425 -0.00390551,0.00391732 -0.00914173,0.00586614 -0.0157047,0.00586614 -0.00795276,0 -0.0142559,-0.00270866 -0.0189016,-0.00813386 -0.00357874,-0.00417323 -0.00535827,-0.009 -0.00535827,-0.0144843 0,-0.00407874 0.00101969,-0.00787402 0.00306693,-0.0113898 0.00205118,-0.00350787 0.00486614,-0.00625591 0.00843307,-0.00824409 0.00357874,-0.00197638 0.00761417,-0.00296457 0.0121181,-0.00296457 0.00364961,0 0.00708661,0.00065748 0.0103031,0.00197638 0.00322441,0.0013189 0.0063622,0.0034252 0.00942913,0.00633465z"/>
    <path id="_4734216001" class="fil0" d="M0.31422 0.101118l0.00344488 0.0018189c-0.00112598,0.00222835 -0.00243701,0.00401575 -0.00391339,0.00538583 -0.00149213,0.00136614 -0.00315748,0.00240551 -0.00500787,0.00311811 -0.00185827,0.000708661 -0.00395669,0.00106693 -0.00629528,0.00106693 -0.00519291,0 -0.00924803,-0.00169685 -0.0121772,-0.0051063 -0.00292913,-0.00340551 -0.00438583,-0.00725197 -0.00438583,-0.0115472 0,-0.00403543 0.00124016,-0.00764567 0.00371654,-0.0107992 0.0031378,-0.00401969 0.00734252,-0.00603543 0.0126102,-0.00603543 0.00542126,0 0.00975984,0.00206693 0.0129961,0.00618504 0.00230709,0.00290551 0.00347638,0.0065315 0.00351575,0.010878l-0.028622 0c7.08661e-005,0.00371654 0.00125984,0.00675591 0.00353543,0.00912205 0.0022874,0.00236614 0.0051063,0.00355512 0.00846457,0.00355512 0.00161811,0 0.00319685,-0.000279528 0.00472441,-0.000846457 0.00152756,-0.000570866 0.00283858,-0.0013189 0.00390551,-0.00225984 0.00107087,-0.000929134 0.00224016,-0.00244488 0.00348819,-0.00453543zm0 -0.00857087c-0.000551181,-0.00218898 -0.00135039,-0.00393701 -0.00238976,-0.00523622 -0.00104724,-0.00130709 -0.0024252,-0.00236614 -0.00414567,-0.00316535 -0.00171654,-0.000799213 -0.00351575,-0.00120079 -0.00541339,-0.00120079 -0.00311811,0 -0.00580709,0.00100787 -0.00804331,0.00301969 -0.0016378,0.00145669 -0.00287795,0.00365354 -0.00371654,0.00658268l0.0237087 0z"/>
    <path id="_47342160012" class="fil0" d="M0.353173 0.101118l0.00344488 0.0018189c-0.00112598,0.00222835 -0.00243701,0.00401575 -0.00391339,0.00538583 -0.00149213,0.00136614 -0.00315748,0.00240551 -0.00500787,0.00311811 -0.00185827,0.000708661 -0.00395669,0.00106693 -0.00629528,0.00106693 -0.00519291,0 -0.00924803,-0.00169685 -0.0121772,-0.0051063 -0.00292913,-0.00340551 -0.00438583,-0.00725197 -0.00438583,-0.0115472 0,-0.00403543 0.00124016,-0.00764567 0.00371654,-0.0107992 0.0031378,-0.00401969 0.00734252,-0.00603543 0.0126102,-0.00603543 0.00542126,0 0.00975984,0.00206693 0.0129961,0.00618504 0.00230709,0.00290551 0.00347638,0.0065315 0.00351575,0.010878l-0.028622 0c7.08661e-005,0.00371654 0.00125984,0.00675591 0.00353543,0.00912205 0.0022874,0.00236614 0.0051063,0.00355512 0.00846457,0.00355512 0.00161811,0 0.00319685,-0.000279528 0.00472441,-0.000846457 0.00152756,-0.000570866 0.00283858,-0.0013189 0.00390551,-0.00225984 0.00107087,-0.000929134 0.00224016,-0.00244488 0.00348819,-0.00453543zm0 -0.00857087c-0.000551181,-0.00218898 -0.00135039,-0.00393701 -0.00238976,-0.00523622 -0.00104724,-0.00130709 -0.0024252,-0.00236614 -0.00414567,-0.00316535 -0.00171654,-0.000799213 -0.00351575,-0.00120079 -0.00541339,-0.00120079 -0.00311811,0 -0.00580709,0.00100787 -0.00804331,0.00301969 -0.0016378,0.00145669 -0.00287795,0.00365354 -0.00371654,0.00658268l0.0237087 0z"/>
    <polygon id="_473421600123" class="fil0" points="0.36528,0.0675512 0.369406,0.0675512 0.369406,0.0926654 0.384134,0.0798386 0.390157,0.0798386 0.372685,0.0950354 0.391185,0.111689 0.38539,0.111689 0.369406,0.097374 0.369406,0.111689 0.36528,0.111689 "/>
   </g>
   <g>
    <path id="_473421168" class="fil1" d="M0.0389094 0.122114l0 0c-0.00188189,0 -0.00341339,-0.00152756 -0.00341339,-0.00341339l0 -0.00227559c0,-0.00188583 0.0015315,-0.00341339 0.00341339,-0.00341339l0 0c0.00188583,0 0.00341339,0.00152756 0.00341339,0.00341339l0 0.00227559c0,0.00188583 -0.00152756,0.00341339 -0.00341339,0.00341339z"/>
    <path id="_603114464" class="fil1" d="M0.0917205 0.122114l0 0c-0.00188583,0 -0.00341339,-0.00152756 -0.00341339,-0.00341339l0 -0.00227559c0,-0.00188583 0.00152756,-0.00341339 0.00341339,-0.00341339l0 0c0.00188583,0 0.00341339,0.00152756 0.00341339,0.00341339l0 0.00227559c0,0.00188583 -0.00152756,0.00341339 -0.00341339,0.00341339z"/>
    <g>
     <path id="_603112664" class="fil2" d="M0.0147087 0.112618l-0.0080748 -0.00323228c-0.000700787,-0.000279528 -0.00116142,-0.000956693 -0.00116142,-0.0017126l0 -0.00244488c0,-0.00101969 0.000826772,-0.00184646 0.00184646,-0.00184646l0.00923622 0 -0.00184646 0.00923622z"/>
    </g>
    <g>
     <path id="_603113216" class="fil2" d="M0.114437 0.112618l0.0080748 -0.00323228c0.000700787,-0.000279528 0.00116142,-0.000956693 0.00116142,-0.0017126l0 -0.00244488c0,-0.00101969 -0.000826772,-0.00184646 -0.00184646,-0.00184646l-0.00923622 0 0.00184646 0.00923622z"/>
    </g>
    <path id="_603112832" class="fil1" d="M0.109854 0.0997795c-0.0112756,-0.00148031 -0.0227126,-0.00148031 -0.0339882,0 -0.00325197,0.000425197 -0.0057126,0.00294488 -0.00627953,0.00601575 -0.00146063,-0.000944882 -0.00317717,-0.00151181 -0.00501575,-0.00151181 -0.00183465,0 -0.00355512,0.000562992 -0.00501575,0.00151181 -0.000562992,-0.00307087 -0.00302756,-0.00559055 -0.00627559,-0.00601575 -0.0112756,-0.00148031 -0.0227126,-0.00148031 -0.0339882,0 -0.004,0.000523622 -0.0068622,0.0042126 -0.00637795,0.00821654 0.000259843,0.00215748 0.000519685,0.00425197 0.000779528,0.00634646 0.000519685,0.00415354 0.00103543,0.0083189 0.00155512,0.0130276 0.000523622,0.00471654 0.00446457,0.0082874 0.00917323,0.00831102l0.0237362 0c3.93701e-006,0 3.93701e-006,0 7.87402e-006,0 0.00470079,-2.75591e-005 0.0086378,-0.00360236 0.00916142,-0.00831102 0.000519685,-0.00472835 0.00103937,-0.00890945 0.00155906,-0.0130787 7.87402e-005,-0.00065748 0.000161417,-0.00133071 0.000244094,-0.00198819 2.3622e-005,-5.90551e-005 5.90551e-005,-0.000110236 7.87402e-005,-0.000173228 0.000625984,-0.00244488 0.00283465,-0.00415354 0.0053622,-0.00415354 0.00252756,0 0.00473228,0.00170472 0.00536614,0.00414567 1.5748e-005,5.90551e-005 5.51181e-005,0.000102362 7.48031e-005,0.00015748 8.26772e-005,0.000665354 0.000165354,0.00134646 0.000248031,0.00201181 0.000519685,0.00416929 0.00103937,0.00835039 0.00155906,0.0130787 0.000523622,0.0047126 0.00446457,0.0082874 0.00917717,0.00830709l0.0237323 0c3.93701e-006,0 7.87402e-006,0 1.1811e-005,0 0.00469685,-2.3622e-005 0.00863386,-0.00359843 0.00915748,-0.00830709 0.000519685,-0.00470866 0.00103543,-0.00887402 0.00155512,-0.0130276 0.000259843,-0.00209449 0.000519685,-0.00418898 0.000779528,-0.00634646 0.000480315,-0.00400394 -0.00238189,-0.00769291 -0.00637795,-0.00821654zm-0.0562008 0.0271811c-0.000314961,0.00284646 -0.0026811,0.00500394 -0.00550394,0.00502362l-0.0237165 0c-0.00282677,-1.1811e-005 -0.00519685,-0.00217323 -0.00551181,-0.00501969 -0.000523622,-0.00472441 -0.00104331,-0.00890945 -0.00156299,-0.0130748 -0.000259843,-0.00209449 -0.000519685,-0.0041811 -0.000775591,-0.00633465 -0.000244094,-0.00200787 0.00118898,-0.00385039 0.00318898,-0.00411417 0.00548031,-0.000720472 0.0109961,-0.00107874 0.0165157,-0.00107874 0.00551575,0 0.0110354,0.000358268 0.0165118,0.00107874 0.00200394,0.00026378 0.00343701,0.0021063 0.00319291,0.00411417 -0.000255906,0.00213386 -0.000515748,0.00420472 -0.000771654,0.00628346 -0.000523622,0.00418504 -0.00104331,0.00838189 -0.00156693,0.013122zm0.0589094 -0.0194055c-0.000255906,0.00215354 -0.000515748,0.00424016 -0.000779528,0.00633465 -0.000515748,0.00416535 -0.00103543,0.00835039 -0.00155906,0.0130748 -0.000314961,0.00284252 -0.0026811,0.005 -0.0055,0.00501969l-0.0237205 0c-0.00282677,-1.1811e-005 -0.00519685,-0.00217323 -0.00551181,-0.00501969 -0.000523622,-0.00474409 -0.00104331,-0.00894094 -0.00156693,-0.013126 -0.000255906,-0.0020748 -0.000515748,-0.00414961 -0.000771654,-0.00628346 -0.000244094,-0.00200787 0.00118898,-0.00385039 0.00319291,-0.00411417 0.00547638,-0.000716535 0.0109961,-0.00107874 0.0165118,-0.00107874 0.00551575,0 0.0110354,0.000362205 0.0165157,0.00107874 0.002,0.00026378 0.00343307,0.0021063 0.00318898,0.00411417z"/>
    <path id="_603114248" class="fil1" d="M0.121469 0.0723858c7.87402e-005,0.00500394 -0.000685039,0.0100551 -0.00200787,0.014878 -0.000885827,0.00319685 -0.00254331,0.0104449 -0.00582677,0.0119488 -0.00176378,-0.00314961 -0.000425197,-0.00733071 -0.000692913,-0.010752 -0.000275591,-0.00351181 -0.000594488,-0.00761811 -0.00227953,-0.0108425 -0.00348425,-0.00670079 -0.0102323,-0.0115512 -0.00737402,-0.0196929 0.00209843,-0.00596063 0.00859055,-0.00475984 0.0126457,-0.00111417 0.00422441,0.00379528 0.00544882,0.0101457 0.00553543,0.0155748z"/>
    <path id="_603114368" class="fil2" d="M0.119961 0.063122c-0.000850394,-0.00240551 -0.0021378,-0.00461417 -0.00402756,-0.00631102 -0.00111417,-0.001 -0.00240551,-0.00181496 -0.00374803,-0.00235039 -0.00408268,0.00244488 -0.0072126,0.00726378 -0.00851181,0.0120394 0.00166535,0.00377953 0.00490945,0.00711811 0.00698819,0.0111181 0.0016811,0.00322441 0.00200394,0.00733071 0.00227953,0.0108425 0.00026378,0.00335433 -0.00100787,0.00743307 0.000594488,0.0105551 0.00358661,-0.00529134 0.00284252,-0.0160866 0.00162205,-0.0208465 -0.000858268,-0.00337402 -0.00236614,-0.00598031 -0.000862205,-0.00944488 0.000933071,-0.00215354 0.00324803,-0.00449606 0.00566535,-0.00560236z"/>
    <path id="_603114224" class="fil1" d="M0.0308504 0.037c-0.00262205,0.00419685 -0.00342913,0.00985827 -0.00153937,0.0144921 0.00200787,0.00491732 0.00717323,0.00605512 0.0116063,0.00810236 0.00484646,0.00223228 0.00900787,0.00453937 0.0131772,0.00788976 0.0043189,0.00346063 0.00864173,0.00720866 0.0140551,0.0088189 0.00809843,0.00241339 0.0170787,0.00226772 0.025311,0.000645669 0.0208504,-0.00411024 0.0347756,-0.0352638 0.021622,-0.053752 0.00151969,0.0101339 -0.00485827,0.0119882 -0.0120236,0.0165354 0.00725197,-0.00819291 0.00166142,-0.0240748 -0.00851575,-0.028748 0.0127795,0.0284409 -0.020189,0.022874 -0.0362598,0.0208268 -0.00897638,-0.00114961 -0.0217283,-0.00392126 -0.0274331,0.00518898z"/>
    <path id="_603113624" class="fil1" d="M0.0195512 0.0427874c0.00275591,-0.000279528 0.00564961,0.00038189 0.00805118,0.00159055 0.00293701,0.00148425 0.00604724,0.00285827 0.00857874,0.00500394 0.00166142,0.00140945 0.00544882,0.00590945 0.00480315,0.00835039 -0.0005,0.00186614 -0.00222441,0.000956693 -0.00385827,0.000885827 -0.00299606,-0.000133858 -0.00645276,-3.93701e-006 -0.00909055,0.00127559 -0.00912992,0.00443307 -0.0115984,0.0165984 -0.013122,0.0255433 -0.000346457,0.00200394 -0.000248031,0.00475197 -0.00171654,0.00626772 -0.00392126,-0.00279134 -0.00381496,-0.0119134 -0.00463386,-0.0162835 -0.00170472,-0.00910236 -0.00208661,-0.0217953 0.00437795,-0.0293071 0.00177165,-0.00205512 0.00412992,-0.00307087 0.00661024,-0.00332677z"/>
    <path id="_603113480" class="fil2" d="M0.115083 0.0231969c0.00019685,0.00129528 0.000255906,0.00246063 0.000204724,0.00351181 0.000909449,0.00359843 0.00187008,0.00708661 0.00130709,0.0111496 -0.000708661,0.00509055 -0.00219291,0.0100787 -0.00464961,0.0147087 -0.00316142,0.00594882 -0.00759055,0.0122795 -0.0140945,0.0149803 -0.00743701,0.00308661 -0.013815,0.00459055 -0.021815,0.00270866 -0.00751181,-0.00176378 -0.0136614,-0.00563386 -0.0207165,-0.0087874 -0.00687008,-0.0030748 -0.0135512,-0.00873622 -0.0214567,-0.00814173 -0.00100787,7.87402e-005 -0.00205512,0.000271654 -0.00312205,0.000555118 0.00248031,0.00298031 0.00657087,0.00404331 0.0101772,0.0057126 0.00484646,0.00223228 0.00900787,0.00453937 0.0131772,0.00788976 0.0043189,0.00346063 0.00864173,0.00720866 0.0140551,0.0088189 0.00809843,0.00241339 0.0170787,0.00226772 0.025311,0.000645669 0.0208504,-0.00411024 0.0383071,-0.037252 0.021622,-0.053752z"/>
    <path id="_603113336" class="fil2" d="M0.0338622 0.0533268c-0.00628346,0.000476378 -0.014252,0.00518898 -0.017126,0.0110236 -0.00402362,0.00817717 -0.00253543,0.0171142 -0.00262205,0.025811 0.000527559,-0.00147244 0.000551181,-0.0032874 0.000795276,-0.00472441 0.00152756,-0.00894488 0.00399213,-0.0211102 0.013122,-0.0255394 0.00264173,-0.00128346 0.00609843,-0.00141339 0.00909449,-0.00127953 0.00162992,7.48031e-005 0.00335827,0.000980315 0.00385433,-0.000885827 0.000267717,-0.00100394 -0.000224409,-0.00235433 -0.00100394,-0.00369291 -0.0019685,-0.000570866 -0.00399606,-0.000874016 -0.00611417,-0.000712598z"/>
    <path id="_603114032" class="fil3" d="M0.023878 0.0504449c0.00385039,-0.00026378 0.00538189,-0.00343307 0.00143701,-0.00515354 -0.0043189,-0.00188189 -0.00904331,0.000712598 -0.0113071,0.00440551 -0.00222047,0.00362205 -0.00140945,0.00636614 -0.0019252,0.0100906 0.000870079,-0.00625984 0.00616929,-0.00894488 0.0117953,-0.00934252z"/>
    <path id="_603113384" class="fil3" d="M0.083937 0.0541772c-0.00815354,0.00372441 -0.0140787,0.00135039 -0.0218268,-0.00198425 -0.00334646,-0.00143701 -0.00662598,-0.00251969 -0.00999606,-0.00402756 -0.00647638,-0.00288583 -0.0128189,-0.00602362 -0.0199409,-0.00279528 -0.000212598,-0.00398425 0.00212598,-0.00780315 0.00523622,-0.0101378 0.00252756,-0.00188976 0.00600394,-0.00290157 0.00912205,-0.00275591 0.00517717,0.000248031 0.0109567,0.00448031 0.0158425,0.00195669 -0.00274409,0.00236614 -0.00548425,0.00357874 -0.0090748,0.00323622 -0.00282283,-0.000275591 -0.0073937,-0.0018622 -0.00918504,0.00130709 0.00638583,-0.00327559 0.0169016,0.0057874 0.0224016,0.0080748 0.00829921,0.0034685 0.0176339,0.00653937 0.0253425,-0.000141732 -0.00272047,0.00311417 -0.00406693,0.00551181 -0.00792126,0.00726772z"/>
   </g>
  </g>
 </g>
</svg>
